<mxGraphModel dx="557" dy="698" grid="1" gridSize="10" guides="1" tooltips="1" connect="1" arrows="1" fold="1" page="1" pageScale="1" pageWidth="1200" pageHeight="700" math="0" shadow="0"><root><mxCell id="0"/><mxCell id="1" parent="0"/><mxCell id="2" value="倒排索引" parent="1" vertex="1"><mxGeometry x="480" y="90" width="240" height="40" as="geometry"/></mxCell><mxCell id="11" value="Stored Fields" parent="1" vertex="1"><mxGeometry x="840" y="90" width="320" height="40" as="geometry"/></mxCell><mxCell id="45" value="" style="childLayout=tableLayout;recursiveResize=0;strokeColor=#70AD47;fillColor=#ffffff;shadow=1;" parent="1" vertex="1"><mxGeometry x="840" y="130" width="320" height="160" as="geometry"/></mxCell><mxCell id="46" style="shape=tableRow;horizontal=0;startSize=0;swimlaneHead=0;swimlaneBody=0;top=0;left=0;bottom=0;right=0;dropTarget=0;collapsible=0;recursiveResize=0;expand=0;fontStyle=1;strokeColor=inherit;fillColor=#70AD47;fontColor=#ffffff;" parent="45" vertex="1"><mxGeometry width="320" height="40" as="geometry"/></mxCell><mxCell id="47" value="文档ID" style="connectable=0;recursiveResize=0;strokeColor=inherit;fillColor=inherit;align=center;fontStyle=1;fontColor=#FFFFFF;html=1;" parent="46" vertex="1"><mxGeometry width="80" height="40" as="geometry"><mxRectangle width="80" height="40" as="alternateBounds"/></mxGeometry></mxCell><mxCell id="48" value="文档内容" style="connectable=0;recursiveResize=0;strokeColor=inherit;fillColor=inherit;align=center;fontStyle=1;fontColor=#FFFFFF;html=1;" parent="46" vertex="1"><mxGeometry x="80" width="240" height="40" as="geometry"><mxRectangle width="240" height="40" as="alternateBounds"/></mxGeometry></mxCell><mxCell id="49" style="shape=tableRow;horizontal=0;startSize=0;swimlaneHead=0;swimlaneBody=0;top=0;left=0;bottom=0;right=0;dropTarget=0;collapsible=0;recursiveResize=0;expand=0;fontStyle=0;strokeColor=inherit;fillColor=#E2EFDA;" parent="45" vertex="1"><mxGeometry y="40" width="320" height="40" as="geometry"/></mxCell><mxCell id="50" value="0" style="connectable=0;recursiveResize=0;strokeColor=inherit;fillColor=inherit;align=center;whiteSpace=wrap;html=1;fontSize=14;fontStyle=1;" parent="49" vertex="1"><mxGeometry width="80" height="40" as="geometry"><mxRectangle width="80" height="40" as="alternateBounds"/></mxGeometry></mxCell><mxCell id="51" value="I like xiaobai" style="connectable=0;recursiveResize=0;strokeColor=inherit;fillColor=inherit;align=center;whiteSpace=wrap;html=1;fontSize=14;" parent="49" vertex="1"><mxGeometry x="80" width="240" height="40" as="geometry"><mxRectangle width="240" height="40" as="alternateBounds"/></mxGeometry></mxCell><mxCell id="52" style="shape=tableRow;horizontal=0;startSize=0;swimlaneHead=0;swimlaneBody=0;top=0;left=0;bottom=0;right=0;dropTarget=0;collapsible=0;recursiveResize=0;expand=0;fontStyle=0;strokeColor=inherit;fillColor=#ffffff;" parent="45" vertex="1"><mxGeometry y="80" width="320" height="40" as="geometry"/></mxCell><mxCell id="53" value="1" style="connectable=0;recursiveResize=0;strokeColor=inherit;fillColor=inherit;align=center;whiteSpace=wrap;html=1;fontSize=14;fontStyle=1;" parent="52" vertex="1"><mxGeometry width="80" height="40" as="geometry"><mxRectangle width="80" height="40" as="alternateBounds"/></mxGeometry></mxCell><mxCell id="54" value="I follow xiaobai" style="connectable=0;recursiveResize=0;strokeColor=inherit;fillColor=inherit;align=center;whiteSpace=wrap;html=1;fontSize=14;" parent="52" vertex="1"><mxGeometry x="80" width="240" height="40" as="geometry"><mxRectangle width="240" height="40" as="alternateBounds"/></mxGeometry></mxCell><mxCell id="55" style="shape=tableRow;horizontal=0;startSize=0;swimlaneHead=0;swimlaneBody=0;top=0;left=0;bottom=0;right=0;dropTarget=0;collapsible=0;recursiveResize=0;expand=0;fontStyle=0;strokeColor=inherit;fillColor=#E2EFDA;" parent="45" vertex="1"><mxGeometry y="120" width="320" height="40" as="geometry"/></mxCell><mxCell id="56" value="2" style="connectable=0;recursiveResize=0;strokeColor=inherit;fillColor=inherit;align=center;whiteSpace=wrap;html=1;fontSize=14;fontStyle=1;" parent="55" vertex="1"><mxGeometry width="80" height="40" as="geometry"><mxRectangle width="80" height="40" as="alternateBounds"/></mxGeometry></mxCell><mxCell id="57" value="I forward the video" style="connectable=0;recursiveResize=0;strokeColor=inherit;fillColor=inherit;align=center;whiteSpace=wrap;html=1;fontSize=14;" parent="55" vertex="1"><mxGeometry x="80" width="240" height="40" as="geometry"><mxRectangle width="240" height="40" as="alternateBounds"/></mxGeometry></mxCell><mxCell id="58" value="" style="exitX=1;exitY=0.5;exitDx=0;exitDy=0;edgeStyle=orthogonalEdgeStyle;entryX=0;entryY=0.5;entryDx=0;entryDy=0;" parent="1" source="212" target="49" edge="1"><mxGeometry relative="1" as="geometry"><mxPoint x="680" y="200" as="sourcePoint"/><mxPoint x="840" y="200" as="targetPoint"/></mxGeometry></mxCell><mxCell id="59" style="edgeStyle=orthogonalEdgeStyle;html=1;exitX=1;exitY=0.5;exitDx=0;exitDy=0;entryX=0;entryY=0.5;entryDx=0;entryDy=0;" parent="1" source="212" target="52" edge="1"><mxGeometry relative="1" as="geometry"/></mxCell><mxCell id="145" value="Term Index" style="fontSize=16;fontStyle=1;fillColor=#4472C4;fontColor=#ffffff;strokeColor=#4472C4;" parent="1" vertex="1"><mxGeometry x="40" y="127" width="320" height="40" as="geometry"/></mxCell><mxCell id="146" value="" style="strokeColor=#4472C4;fillColor=#ffffff;" parent="1" vertex="1"><mxGeometry x="40" y="167" width="320" height="283" as="geometry"/></mxCell><mxCell id="149" value="根" style="rounded=1;fillColor=#4472C4;fontColor=#ffffff;strokeColor=#4472C4;" parent="1" vertex="1"><mxGeometry x="80" y="272" width="40" height="30" as="geometry"/></mxCell><mxCell id="150" value="Fo" style="rounded=1;fillColor=#4472C4;fontColor=#ffffff;strokeColor=#4472C4;" parent="1" vertex="1"><mxGeometry x="160" y="232" width="40" height="30" as="geometry"/></mxCell><mxCell id="151" value="li" style="rounded=1;fillColor=#4472C4;fontColor=#ffffff;strokeColor=#4472C4;" parent="1" vertex="1"><mxGeometry x="160" y="312" width="40" height="30" as="geometry"/></mxCell><mxCell id="224" style="edgeStyle=none;html=1;exitX=1;exitY=0.5;exitDx=0;exitDy=0;entryX=0;entryY=0.5;entryDx=0;entryDy=0;rounded=1;curved=0;" parent="1" source="152" target="212" edge="1"><mxGeometry relative="1" as="geometry"/></mxCell><mxCell id="152" value="x" style="rounded=1;fillColor=#4472C4;fontColor=#ffffff;strokeColor=#4472C4;" parent="1" vertex="1"><mxGeometry x="160" y="352" width="40" height="30" as="geometry"/></mxCell><mxCell id="153" value="Fol" style="rounded=1;fillColor=#4472C4;fontColor=#ffffff;strokeColor=#4472C4;" parent="1" vertex="1"><mxGeometry x="260" y="212" width="40" height="30" as="geometry"/></mxCell><mxCell id="222" style="edgeStyle=none;html=1;exitX=1;exitY=0.5;exitDx=0;exitDy=0;entryX=0;entryY=0.5;entryDx=0;entryDy=0;rounded=1;curved=0;" parent="1" source="154" target="197" edge="1"><mxGeometry relative="1" as="geometry"/></mxCell><mxCell id="154" value="For" style="rounded=1;fillColor=#4472C4;fontColor=#ffffff;strokeColor=#4472C4;" parent="1" vertex="1"><mxGeometry x="260" y="252" width="40" height="30" as="geometry"/></mxCell><mxCell id="223" style="edgeStyle=none;html=1;exitX=1;exitY=0.5;exitDx=0;exitDy=0;entryX=0;entryY=0.5;entryDx=0;entryDy=0;rounded=1;curved=0;" parent="1" source="155" target="209" edge="1"><mxGeometry relative="1" as="geometry"/></mxCell><mxCell id="155" value="lin" style="rounded=1;fillColor=#4472C4;fontColor=#ffffff;strokeColor=#4472C4;" parent="1" vertex="1"><mxGeometry x="260" y="312" width="40" height="30" as="geometry"/></mxCell><mxCell id="175" value="" style="strokeColor=#666666;strokeWidth=2;" parent="1" edge="1"><mxGeometry relative="1" as="geometry"><mxPoint x="120" y="287" as="sourcePoint"/><mxPoint x="160" y="247" as="targetPoint"/></mxGeometry></mxCell><mxCell id="176" value="" style="strokeColor=#666666;strokeWidth=2;" parent="1" edge="1"><mxGeometry relative="1" as="geometry"><mxPoint x="120" y="287" as="sourcePoint"/><mxPoint x="160" y="327" as="targetPoint"/></mxGeometry></mxCell><mxCell id="177" value="" style="strokeColor=#666666;strokeWidth=2;" parent="1" edge="1"><mxGeometry relative="1" as="geometry"><mxPoint x="120" y="287" as="sourcePoint"/><mxPoint x="160" y="367" as="targetPoint"/></mxGeometry></mxCell><mxCell id="178" value="" style="strokeColor=#666666;strokeWidth=2;" parent="1" edge="1"><mxGeometry relative="1" as="geometry"><mxPoint x="200" y="247" as="sourcePoint"/><mxPoint x="260" y="227" as="targetPoint"/></mxGeometry></mxCell><mxCell id="179" value="" style="strokeColor=#666666;strokeWidth=2;" parent="1" edge="1"><mxGeometry relative="1" as="geometry"><mxPoint x="200" y="247" as="sourcePoint"/><mxPoint x="260" y="267" as="targetPoint"/></mxGeometry></mxCell><mxCell id="180" value="" style="strokeColor=#666666;strokeWidth=2;" parent="1" edge="1"><mxGeometry relative="1" as="geometry"><mxPoint x="200" y="327" as="sourcePoint"/><mxPoint x="260" y="327" as="targetPoint"/></mxGeometry></mxCell><UserObject label="参考 小白debug" link="https://golangguide.top/%E4%B8%AD%E9%97%B4%E4%BB%B6/es/%E6%A0%B8%E5%BF%83%E7%9F%A5%E8%AF%86%E7%82%B9/elasticSearch%E6%9E%B6%E6%9E%84%E6%98%AF%E6%80%8E%E4%B9%88%E6%A0%B7%E7%9A%84.html" id="187"><mxCell style="text;html=1;strokeColor=none;fillColor=none;whiteSpace=wrap;align=center;verticalAlign=middle;fontColor=#0000EE;fontStyle=4;" parent="1" vertex="1"><mxGeometry width="120" height="40" as="geometry"/></mxCell></UserObject><mxCell id="190" value="" style="childLayout=tableLayout;recursiveResize=0;strokeColor=#4472C4;fillColor=#ffffff;shadow=1;" parent="1" vertex="1"><mxGeometry x="480" y="130" width="240" height="320" as="geometry"/></mxCell><mxCell id="191" style="shape=tableRow;horizontal=0;startSize=0;swimlaneHead=0;swimlaneBody=0;top=0;left=0;bottom=0;right=0;dropTarget=0;collapsible=0;recursiveResize=0;expand=0;fontStyle=1;strokeColor=inherit;fillColor=#4472C4;fontColor=#ffffff;" parent="190" vertex="1"><mxGeometry width="240" height="40" as="geometry"/></mxCell><mxCell id="192" value="term dictionary" style="connectable=0;recursiveResize=0;strokeColor=inherit;fillColor=inherit;align=center;fontStyle=1;fontColor=#FFFFFF;html=1;" parent="191" vertex="1"><mxGeometry width="120" height="40" as="geometry"><mxRectangle width="120" height="40" as="alternateBounds"/></mxGeometry></mxCell><mxCell id="193" value="Posting list" style="connectable=0;recursiveResize=0;strokeColor=inherit;fillColor=inherit;align=center;fontStyle=1;fontColor=#FFFFFF;html=1;" parent="191" vertex="1"><mxGeometry x="120" width="120" height="40" as="geometry"><mxRectangle width="120" height="40" as="alternateBounds"/></mxGeometry></mxCell><mxCell id="194" value="" style="shape=tableRow;horizontal=0;startSize=0;swimlaneHead=0;swimlaneBody=0;top=0;left=0;bottom=0;right=0;dropTarget=0;collapsible=0;recursiveResize=0;expand=0;fontStyle=0;strokeColor=inherit;fillColor=#ffffff;" parent="190" vertex="1"><mxGeometry y="40" width="240" height="40" as="geometry"/></mxCell><mxCell id="195" value="follow" style="connectable=0;recursiveResize=0;strokeColor=inherit;fillColor=inherit;align=center;whiteSpace=wrap;html=1;fontSize=14;fontStyle=1;" parent="194" vertex="1"><mxGeometry width="120" height="40" as="geometry"><mxRectangle width="120" height="40" as="alternateBounds"/></mxGeometry></mxCell><mxCell id="196" value="..." style="connectable=0;recursiveResize=0;strokeColor=inherit;fillColor=inherit;align=center;whiteSpace=wrap;html=1;fontSize=14;fontStyle=1;" parent="194" vertex="1"><mxGeometry x="120" width="120" height="40" as="geometry"><mxRectangle width="120" height="40" as="alternateBounds"/></mxGeometry></mxCell><mxCell id="200" value="" style="shape=tableRow;horizontal=0;startSize=0;swimlaneHead=0;swimlaneBody=0;top=0;left=0;bottom=0;right=0;dropTarget=0;collapsible=0;recursiveResize=0;expand=0;fontStyle=0;strokeColor=inherit;fillColor=#ffffff;" parent="190" vertex="1"><mxGeometry y="80" width="240" height="40" as="geometry"/></mxCell><mxCell id="201" value="..." style="connectable=0;recursiveResize=0;strokeColor=inherit;fillColor=inherit;align=center;whiteSpace=wrap;html=1;fontSize=14;fontStyle=1;" parent="200" vertex="1"><mxGeometry width="120" height="40" as="geometry"><mxRectangle width="120" height="40" as="alternateBounds"/></mxGeometry></mxCell><mxCell id="202" value="..." style="connectable=0;recursiveResize=0;strokeColor=inherit;fillColor=inherit;align=center;whiteSpace=wrap;html=1;fontSize=14;fontStyle=1;" parent="200" vertex="1"><mxGeometry x="120" width="120" height="40" as="geometry"><mxRectangle width="120" height="40" as="alternateBounds"/></mxGeometry></mxCell><mxCell id="197" value="" style="shape=tableRow;horizontal=0;startSize=0;swimlaneHead=0;swimlaneBody=0;top=0;left=0;bottom=0;right=0;dropTarget=0;collapsible=0;recursiveResize=0;expand=0;fontStyle=0;strokeColor=inherit;fillColor=#ffffff;" parent="190" vertex="1"><mxGeometry y="120" width="240" height="40" as="geometry"/></mxCell><mxCell id="198" value="forward" style="connectable=0;recursiveResize=0;strokeColor=inherit;fillColor=inherit;align=center;whiteSpace=wrap;html=1;fontSize=14;fontStyle=1;" parent="197" vertex="1"><mxGeometry width="120" height="40" as="geometry"><mxRectangle width="120" height="40" as="alternateBounds"/></mxGeometry></mxCell><mxCell id="199" value="..." style="connectable=0;recursiveResize=0;strokeColor=inherit;fillColor=inherit;align=center;whiteSpace=wrap;html=1;fontSize=14;fontStyle=1;" parent="197" vertex="1"><mxGeometry x="120" width="120" height="40" as="geometry"><mxRectangle width="120" height="40" as="alternateBounds"/></mxGeometry></mxCell><mxCell id="206" value="" style="shape=tableRow;horizontal=0;startSize=0;swimlaneHead=0;swimlaneBody=0;top=0;left=0;bottom=0;right=0;dropTarget=0;collapsible=0;recursiveResize=0;expand=0;fontStyle=0;strokeColor=inherit;fillColor=#ffffff;" parent="190" vertex="1"><mxGeometry y="160" width="240" height="40" as="geometry"/></mxCell><mxCell id="207" value="..." style="connectable=0;recursiveResize=0;strokeColor=inherit;fillColor=inherit;align=center;whiteSpace=wrap;html=1;fontSize=14;fontStyle=1;" parent="206" vertex="1"><mxGeometry width="120" height="40" as="geometry"><mxRectangle width="120" height="40" as="alternateBounds"/></mxGeometry></mxCell><mxCell id="208" value="..." style="connectable=0;recursiveResize=0;strokeColor=inherit;fillColor=inherit;align=center;whiteSpace=wrap;html=1;fontSize=14;fontStyle=1;" parent="206" vertex="1"><mxGeometry x="120" width="120" height="40" as="geometry"><mxRectangle width="120" height="40" as="alternateBounds"/></mxGeometry></mxCell><mxCell id="203" value="" style="shape=tableRow;horizontal=0;startSize=0;swimlaneHead=0;swimlaneBody=0;top=0;left=0;bottom=0;right=0;dropTarget=0;collapsible=0;recursiveResize=0;expand=0;fontStyle=0;strokeColor=inherit;fillColor=#ffffff;" parent="190" vertex="1"><mxGeometry y="200" width="240" height="40" as="geometry"/></mxCell><mxCell id="204" value="I" style="connectable=0;recursiveResize=0;strokeColor=inherit;fillColor=inherit;align=center;whiteSpace=wrap;html=1;fontSize=14;fontStyle=1;" parent="203" vertex="1"><mxGeometry width="120" height="40" as="geometry"><mxRectangle width="120" height="40" as="alternateBounds"/></mxGeometry></mxCell><mxCell id="205" value="0    1 2" style="connectable=0;recursiveResize=0;strokeColor=inherit;fillColor=inherit;align=center;whiteSpace=wrap;html=1;fontSize=14;fontStyle=1;" parent="203" vertex="1"><mxGeometry x="120" width="120" height="40" as="geometry"><mxRectangle width="120" height="40" as="alternateBounds"/></mxGeometry></mxCell><mxCell id="209" value="" style="shape=tableRow;horizontal=0;startSize=0;swimlaneHead=0;swimlaneBody=0;top=0;left=0;bottom=0;right=0;dropTarget=0;collapsible=0;recursiveResize=0;expand=0;fontStyle=0;strokeColor=inherit;fillColor=#ffffff;" parent="190" vertex="1"><mxGeometry y="240" width="240" height="40" as="geometry"/></mxCell><mxCell id="210" value="link" style="connectable=0;recursiveResize=0;strokeColor=inherit;fillColor=inherit;align=center;whiteSpace=wrap;html=1;fontSize=14;fontStyle=1;" parent="209" vertex="1"><mxGeometry width="120" height="40" as="geometry"><mxRectangle width="120" height="40" as="alternateBounds"/></mxGeometry></mxCell><mxCell id="211" value="..." style="connectable=0;recursiveResize=0;strokeColor=inherit;fillColor=inherit;align=center;whiteSpace=wrap;html=1;fontSize=14;fontStyle=1;" parent="209" vertex="1"><mxGeometry x="120" width="120" height="40" as="geometry"><mxRectangle width="120" height="40" as="alternateBounds"/></mxGeometry></mxCell><mxCell id="212" value="" style="shape=tableRow;horizontal=0;startSize=0;swimlaneHead=0;swimlaneBody=0;top=0;left=0;bottom=0;right=0;dropTarget=0;collapsible=0;recursiveResize=0;expand=0;fontStyle=0;strokeColor=inherit;fillColor=#ffffff;" parent="190" vertex="1"><mxGeometry y="280" width="240" height="40" as="geometry"/></mxCell><mxCell id="213" value="xiaobai" style="connectable=0;recursiveResize=0;strokeColor=inherit;fillColor=inherit;align=center;whiteSpace=wrap;html=1;fontSize=14;fontStyle=1;" parent="212" vertex="1"><mxGeometry width="120" height="40" as="geometry"><mxRectangle width="120" height="40" as="alternateBounds"/></mxGeometry></mxCell><mxCell id="214" value="0    1" style="connectable=0;recursiveResize=0;strokeColor=inherit;fillColor=inherit;align=center;whiteSpace=wrap;html=1;fontSize=14;fontStyle=1;" parent="212" vertex="1"><mxGeometry x="120" width="120" height="40" as="geometry"><mxRectangle width="120" height="40" as="alternateBounds"/></mxGeometry></mxCell><mxCell id="221" value="" style="endArrow=classic;html=1;exitX=1;exitY=0.5;exitDx=0;exitDy=0;entryX=0;entryY=0.5;entryDx=0;entryDy=0;rounded=1;curved=0;" parent="1" source="153" target="194" edge="1"><mxGeometry width="50" height="50" relative="1" as="geometry"><mxPoint x="460" y="340" as="sourcePoint"/><mxPoint x="510" y="290" as="targetPoint"/></mxGeometry></mxCell><mxCell id="225" value="Assets" style="childLayout=tableLayout;recursiveResize=0;strokeColor=#98bf21;fillColor=#A7C942;shadow=1;" parent="1" vertex="1"><mxGeometry x="840" y="450" width="280" height="160" as="geometry"/></mxCell><mxCell id="226" style="shape=tableRow;horizontal=0;startSize=0;swimlaneHead=0;swimlaneBody=0;top=0;left=0;bottom=0;right=0;dropTarget=0;collapsible=0;recursiveResize=0;expand=0;fontStyle=0;strokeColor=inherit;fillColor=#ffffff;" parent="225" vertex="1"><mxGeometry width="280" height="33" as="geometry"/></mxCell><mxCell id="227" value="时间" style="connectable=0;recursiveResize=0;strokeColor=inherit;fillColor=#A7C942;align=center;fontStyle=1;fontColor=#FFFFFF;html=1;" parent="226" vertex="1"><mxGeometry width="93" height="33" as="geometry"><mxRectangle width="93" height="33" as="alternateBounds"/></mxGeometry></mxCell><mxCell id="228" value="价格" style="connectable=0;recursiveResize=0;strokeColor=inherit;fillColor=#A7C942;align=center;fontStyle=1;fontColor=#FFFFFF;html=1;" parent="226" vertex="1"><mxGeometry x="93" width="94" height="33" as="geometry"><mxRectangle width="94" height="33" as="alternateBounds"/></mxGeometry></mxCell><mxCell id="229" value="" style="connectable=0;recursiveResize=0;strokeColor=inherit;fillColor=#A7C942;align=center;fontStyle=1;fontColor=#FFFFFF;html=1;" parent="226" vertex="1"><mxGeometry x="187" width="93" height="33" as="geometry"><mxRectangle width="93" height="33" as="alternateBounds"/></mxGeometry></mxCell><mxCell id="230" value="" style="shape=tableRow;horizontal=0;startSize=0;swimlaneHead=0;swimlaneBody=0;top=0;left=0;bottom=0;right=0;dropTarget=0;collapsible=0;recursiveResize=0;expand=0;fontStyle=0;strokeColor=inherit;fillColor=#ffffff;" parent="225" vertex="1"><mxGeometry y="33" width="280" height="32" as="geometry"/></mxCell><mxCell id="231" value="Value 1" style="connectable=0;recursiveResize=0;strokeColor=inherit;fillColor=inherit;align=center;whiteSpace=wrap;html=1;" parent="230" vertex="1"><mxGeometry width="93" height="32" as="geometry"><mxRectangle width="93" height="32" as="alternateBounds"/></mxGeometry></mxCell><mxCell id="232" value="Value 2" style="connectable=0;recursiveResize=0;strokeColor=inherit;fillColor=inherit;align=center;whiteSpace=wrap;html=1;" parent="230" vertex="1"><mxGeometry x="93" width="94" height="32" as="geometry"><mxRectangle width="94" height="32" as="alternateBounds"/></mxGeometry></mxCell><mxCell id="233" value="" style="connectable=0;recursiveResize=0;strokeColor=inherit;fillColor=inherit;align=center;whiteSpace=wrap;html=1;" parent="230" vertex="1"><mxGeometry x="187" width="93" height="32" as="geometry"><mxRectangle width="93" height="32" as="alternateBounds"/></mxGeometry></mxCell><mxCell id="234" value="" style="shape=tableRow;horizontal=0;startSize=0;swimlaneHead=0;swimlaneBody=0;top=0;left=0;bottom=0;right=0;dropTarget=0;collapsible=0;recursiveResize=0;expand=0;fontStyle=1;strokeColor=inherit;fillColor=#EAF2D3;" parent="225" vertex="1"><mxGeometry y="65" width="280" height="31" as="geometry"/></mxCell><mxCell id="235" value="Value 4" style="connectable=0;recursiveResize=0;strokeColor=inherit;fillColor=inherit;whiteSpace=wrap;html=1;" parent="234" vertex="1"><mxGeometry width="93" height="31" as="geometry"><mxRectangle width="93" height="31" as="alternateBounds"/></mxGeometry></mxCell><mxCell id="236" value="Value 5" style="connectable=0;recursiveResize=0;strokeColor=inherit;fillColor=inherit;whiteSpace=wrap;html=1;" parent="234" vertex="1"><mxGeometry x="93" width="94" height="31" as="geometry"><mxRectangle width="94" height="31" as="alternateBounds"/></mxGeometry></mxCell><mxCell id="237" value="" style="connectable=0;recursiveResize=0;strokeColor=inherit;fillColor=inherit;whiteSpace=wrap;html=1;" parent="234" vertex="1"><mxGeometry x="187" width="93" height="31" as="geometry"><mxRectangle width="93" height="31" as="alternateBounds"/></mxGeometry></mxCell><mxCell id="238" value="" style="shape=tableRow;horizontal=0;startSize=0;swimlaneHead=0;swimlaneBody=0;top=0;left=0;bottom=0;right=0;dropTarget=0;collapsible=0;recursiveResize=0;expand=0;fontStyle=0;strokeColor=inherit;fillColor=#ffffff;" parent="225" vertex="1"><mxGeometry y="96" width="280" height="33" as="geometry"/></mxCell><mxCell id="239" value="Value 7" style="connectable=0;recursiveResize=0;strokeColor=inherit;fillColor=inherit;fontStyle=0;align=center;whiteSpace=wrap;html=1;" parent="238" vertex="1"><mxGeometry width="93" height="33" as="geometry"><mxRectangle width="93" height="33" as="alternateBounds"/></mxGeometry></mxCell><mxCell id="240" value="Value 8" style="connectable=0;recursiveResize=0;strokeColor=inherit;fillColor=inherit;fontStyle=0;align=center;whiteSpace=wrap;html=1;" parent="238" vertex="1"><mxGeometry x="93" width="94" height="33" as="geometry"><mxRectangle width="94" height="33" as="alternateBounds"/></mxGeometry></mxCell><mxCell id="241" value="" style="connectable=0;recursiveResize=0;strokeColor=inherit;fillColor=inherit;fontStyle=0;align=center;whiteSpace=wrap;html=1;" parent="238" vertex="1"><mxGeometry x="187" width="93" height="33" as="geometry"><mxRectangle width="93" height="33" as="alternateBounds"/></mxGeometry></mxCell><mxCell id="242" value="" style="shape=tableRow;horizontal=0;startSize=0;swimlaneHead=0;swimlaneBody=0;top=0;left=0;bottom=0;right=0;dropTarget=0;collapsible=0;recursiveResize=0;expand=0;fontStyle=1;strokeColor=inherit;fillColor=#EAF2D3;" parent="225" vertex="1"><mxGeometry y="129" width="280" height="31" as="geometry"/></mxCell><mxCell id="243" value="Value 10" style="connectable=0;recursiveResize=0;strokeColor=inherit;fillColor=inherit;whiteSpace=wrap;html=1;" parent="242" vertex="1"><mxGeometry width="93" height="31" as="geometry"><mxRectangle width="93" height="31" as="alternateBounds"/></mxGeometry></mxCell><mxCell id="244" value="Value 11" style="connectable=0;recursiveResize=0;strokeColor=inherit;fillColor=inherit;whiteSpace=wrap;html=1;" parent="242" vertex="1"><mxGeometry x="93" width="94" height="31" as="geometry"><mxRectangle width="94" height="31" as="alternateBounds"/></mxGeometry></mxCell><mxCell id="245" value="" style="connectable=0;recursiveResize=0;strokeColor=inherit;fillColor=inherit;whiteSpace=wrap;html=1;" parent="242" vertex="1"><mxGeometry x="187" width="93" height="31" as="geometry"><mxRectangle width="93" height="31" as="alternateBounds"/></mxGeometry></mxCell><mxCell id="246" value="Doc Values" parent="1" vertex="1"><mxGeometry x="840" y="410" width="280" height="40" as="geometry"/></mxCell></root></mxGraphModel>